<svg width="155" height="40" viewBox="0 0 155 40" fill="none" xmlns="http://www.w3.org/2000/svg">
<path d="M21.8026 12.0582C21.6548 10.5687 21.0208 9.41146 19.9006 8.58665C18.7803 7.76184 17.2599 7.34943 15.3395 7.34943C14.0346 7.34943 12.9328 7.53409 12.0341 7.90341C11.1354 8.26042 10.446 8.759 9.96591 9.39915C9.49811 10.0393 9.26421 10.7656 9.26421 11.5781C9.23958 12.2552 9.38116 12.8461 9.68892 13.3509C10.009 13.8556 10.446 14.2926 11 14.6619C11.554 15.0189 12.1941 15.3329 12.9205 15.6037C13.6468 15.8622 14.4223 16.0838 15.2472 16.2685L18.6449 17.081C20.2945 17.4503 21.8087 17.9427 23.1875 18.5582C24.5663 19.1738 25.7604 19.9309 26.7699 20.8295C27.7794 21.7282 28.5611 22.7869 29.1151 24.0057C29.6813 25.2244 29.9706 26.6217 29.983 28.1974C29.9706 30.5118 29.3797 32.5185 28.2102 34.2173C27.053 35.9039 25.3788 37.215 23.1875 38.1506C21.0085 39.0739 18.3802 39.5355 15.3026 39.5355C12.2495 39.5355 9.59044 39.0677 7.32528 38.1321C5.07244 37.1965 3.31203 35.8116 2.04403 33.9773C0.788352 32.1307 0.129735 29.8471 0.0681818 27.1264H7.8054C7.89157 28.3944 8.25474 29.4531 8.89489 30.3026C9.54735 31.1397 10.4152 31.7737 11.4986 32.2045C12.5942 32.6231 13.8314 32.8324 15.2102 32.8324C16.5644 32.8324 17.7401 32.6354 18.7372 32.2415C19.7467 31.8475 20.5284 31.2997 21.0824 30.598C21.6364 29.8963 21.9134 29.09 21.9134 28.179C21.9134 27.3295 21.661 26.6155 21.1562 26.0369C20.6638 25.4583 19.9375 24.9659 18.9773 24.5597C18.0294 24.1534 16.866 23.7841 15.4872 23.4517L11.3693 22.4176C8.18087 21.642 5.66335 20.4295 3.81676 18.7798C1.97017 17.1302 1.05303 14.9081 1.06534 12.1136C1.05303 9.82386 1.66241 7.82339 2.89347 6.11222C4.13684 4.40104 5.84186 3.06534 8.00852 2.10511C10.1752 1.14489 12.6373 0.664771 15.3949 0.664771C18.2017 0.664771 20.6515 1.14489 22.7443 2.10511C24.8494 3.06534 26.4867 4.40104 27.6562 6.11222C28.8258 7.82339 29.429 9.8054 29.4659 12.0582H21.8026ZM43.0799 22.6023V39H35.2134V1.18182H42.8583V15.6406H43.1907C43.8308 13.9664 44.8649 12.6553 46.293 11.7074C47.721 10.7472 49.5122 10.267 51.6665 10.267C53.6362 10.267 55.3536 10.6979 56.8185 11.5597C58.2958 12.4091 59.4407 13.634 60.2532 15.2344C61.078 16.8224 61.4843 18.7244 61.4719 20.9403V39H53.6055V22.3438C53.6178 20.5956 53.1746 19.2353 52.2759 18.2628C51.3896 17.2902 50.1462 16.804 48.5458 16.804C47.4748 16.804 46.5269 17.0317 45.7021 17.4872C44.8896 17.9427 44.2494 18.6075 43.7816 19.4815C43.3261 20.3433 43.0922 21.3835 43.0799 22.6023ZM80.478 39.554C77.6096 39.554 75.129 38.9446 73.0362 37.7259C70.9557 36.4948 69.3492 34.7836 68.2166 32.5923C67.084 30.3887 66.5178 27.8343 66.5178 24.929C66.5178 21.9991 67.084 19.4384 68.2166 17.2472C69.3492 15.0436 70.9557 13.3324 73.0362 12.1136C75.129 10.8826 77.6096 10.267 80.478 10.267C83.3464 10.267 85.8208 10.8826 87.9013 12.1136C89.9941 13.3324 91.6068 15.0436 92.7393 17.2472C93.8719 19.4384 94.4382 21.9991 94.4382 24.929C94.4382 27.8343 93.8719 30.3887 92.7393 32.5923C91.6068 34.7836 89.9941 36.4948 87.9013 37.7259C85.8208 38.9446 83.3464 39.554 80.478 39.554ZM80.5149 33.4602C81.8198 33.4602 82.9093 33.0909 83.7834 32.3523C84.6574 31.6013 85.3161 30.5795 85.7592 29.2869C86.2147 27.9943 86.4425 26.5232 86.4425 24.8736C86.4425 23.224 86.2147 21.7528 85.7592 20.4602C85.3161 19.1676 84.6574 18.1458 83.7834 17.3949C82.9093 16.6439 81.8198 16.2685 80.5149 16.2685C79.1977 16.2685 78.0897 16.6439 77.1911 17.3949C76.3047 18.1458 75.6338 19.1676 75.1783 20.4602C74.7351 21.7528 74.5135 23.224 74.5135 24.8736C74.5135 26.5232 74.7351 27.9943 75.1783 29.2869C75.6338 30.5795 76.3047 31.6013 77.1911 32.3523C78.0897 33.0909 79.1977 33.4602 80.5149 33.4602ZM112.479 39.554C109.562 39.554 107.05 38.9631 104.945 37.7812C102.853 36.5871 101.24 34.9006 100.107 32.7216C98.9747 30.5303 98.4084 27.9389 98.4084 24.9474C98.4084 22.0298 98.9747 19.4692 100.107 17.2656C101.24 15.062 102.834 13.3447 104.89 12.1136C106.958 10.8826 109.383 10.267 112.165 10.267C114.037 10.267 115.779 10.5687 117.391 11.1719C119.016 11.7628 120.432 12.6553 121.638 13.8494C122.857 15.0436 123.805 16.5455 124.482 18.3551C125.159 20.1525 125.498 22.2576 125.498 24.6705V26.831H101.548V21.956H118.093C118.093 20.8234 117.847 19.8201 117.354 18.946C116.862 18.072 116.179 17.3887 115.305 16.8963C114.443 16.3916 113.44 16.1392 112.295 16.1392C111.101 16.1392 110.042 16.4162 109.119 16.9702C108.208 17.5118 107.494 18.2443 106.977 19.1676C106.46 20.0786 106.195 21.0942 106.183 22.2145V26.8494C106.183 28.2528 106.441 29.4654 106.958 30.4872C107.487 31.509 108.232 32.2969 109.192 32.8509C110.153 33.4048 111.291 33.6818 112.609 33.6818C113.483 33.6818 114.283 33.5587 115.009 33.3125C115.736 33.0663 116.357 32.697 116.874 32.2045C117.391 31.7121 117.785 31.1089 118.056 30.3949L125.332 30.875C124.962 32.6231 124.205 34.1496 123.06 35.4545C121.928 36.7472 120.463 37.7566 118.665 38.483C116.88 39.197 114.818 39.554 112.479 39.554ZM138.719 39.5355C136.91 39.5355 135.297 39.2216 133.881 38.5938C132.466 37.9536 131.345 37.0118 130.521 35.7685C129.708 34.5128 129.302 32.9493 129.302 31.0781C129.302 29.5024 129.591 28.179 130.17 27.108C130.748 26.0369 131.536 25.1752 132.533 24.5227C133.531 23.8703 134.663 23.3778 135.931 23.0455C137.211 22.7131 138.553 22.4792 139.957 22.3438C141.606 22.1714 142.936 22.0114 143.945 21.8636C144.955 21.7036 145.687 21.4697 146.143 21.1619C146.598 20.8542 146.826 20.3987 146.826 19.7955V19.6847C146.826 18.5152 146.457 17.6103 145.718 16.9702C144.992 16.33 143.958 16.0099 142.616 16.0099C141.2 16.0099 140.074 16.3239 139.237 16.9517C138.399 17.5672 137.845 18.3428 137.575 19.2784L130.299 18.6875C130.668 16.964 131.395 15.4744 132.478 14.2188C133.561 12.9508 134.959 11.9782 136.67 11.3011C138.393 10.6117 140.388 10.267 142.653 10.267C144.228 10.267 145.737 10.4517 147.177 10.821C148.629 11.1903 149.916 11.7628 151.036 12.5384C152.169 13.3139 153.061 14.3111 153.714 15.5298C154.366 16.7363 154.692 18.1828 154.692 19.8693V39H147.232V35.0668H147.011C146.555 35.9531 145.946 36.7348 145.183 37.4119C144.419 38.0767 143.502 38.5999 142.431 38.9815C141.36 39.3509 140.123 39.5355 138.719 39.5355ZM140.972 34.1065C142.129 34.1065 143.151 33.8788 144.038 33.4233C144.924 32.9555 145.62 32.3277 146.124 31.5398C146.629 30.7519 146.881 29.8594 146.881 28.8622V25.8523C146.635 26.0123 146.297 26.16 145.866 26.2955C145.447 26.4186 144.973 26.5355 144.444 26.6463C143.915 26.7448 143.385 26.8371 142.856 26.9233C142.326 26.9972 141.846 27.0649 141.415 27.1264C140.492 27.2618 139.686 27.4773 138.996 27.7727C138.307 28.0682 137.772 28.4683 137.39 28.973C137.008 29.4654 136.817 30.081 136.817 30.8196C136.817 31.8906 137.205 32.7093 137.981 33.2756C138.769 33.8295 139.766 34.1065 140.972 34.1065Z" fill="#152536"/>
</svg>
